<?xml version="1.0" standalone="no"?>
<!DOCTYPE svg PUBLIC "-//W3C//DTD SVG 20010904//EN"
 "http://www.w3.org/TR/2001/REC-SVG-20010904/DTD/svg10.dtd">
<svg version="1.0" xmlns="http://www.w3.org/2000/svg"
 width="2022.000000pt" height="768.000000pt" viewBox="0 0 2022.000000 768.000000"
 preserveAspectRatio="xMidYMid meet">

<g transform="translate(0.000000,768.000000) scale(0.100000,-0.100000)"
fill="#fff" stroke="none">
<path d="M4220 7632 c-8 -9 -64 -77 -124 -152 -60 -74 -146 -180 -192 -235
-124 -150 -454 -552 -624 -760 -92 -113 -165 -202 -275 -335 -66 -80 -138
-167 -159 -195 -22 -27 -48 -58 -57 -70 -10 -11 -57 -67 -104 -125 -48 -58
-96 -115 -106 -128 -26 -31 -188 -230 -257 -317 -31 -38 -59 -72 -62 -75 -3
-3 -55 -66 -115 -140 -61 -74 -120 -146 -132 -160 -13 -14 -23 -32 -23 -40 0
-8 39 -46 87 -85 48 -38 114 -93 147 -120 34 -28 126 -103 206 -167 138 -111
325 -262 529 -427 51 -42 105 -85 120 -96 14 -11 89 -72 167 -135 77 -63 217
-176 309 -250 93 -74 201 -162 240 -195 39 -33 99 -82 135 -110 36 -27 74 -58
85 -67 11 -9 36 -30 56 -45 20 -15 65 -52 100 -82 l64 -54 3 1146 c1 631 1
1662 0 2291 -3 1017 -5 1142 -18 1128z"/>
<path d="M4350 5360 c0 -1814 3 -2280 13 -2274 13 8 15 10 87 72 48 41 376
309 614 501 77 63 166 136 197 162 31 27 97 81 146 121 185 149 351 285 468
383 66 55 135 111 153 125 18 14 43 34 56 45 12 11 120 100 239 198 120 99
217 183 217 188 0 6 -26 41 -57 78 -95 111 -175 209 -223 271 -25 33 -117 149
-205 258 -88 110 -178 223 -200 252 -22 28 -62 80 -90 115 -27 35 -75 95 -105
135 -30 39 -60 76 -66 83 -6 7 -47 59 -93 117 -45 58 -135 172 -199 253 -64
82 -128 164 -142 182 -14 18 -50 63 -80 101 -31 38 -63 80 -72 94 -15 22 -34
47 -80 100 -7 8 -32 39 -55 70 -23 30 -48 62 -55 71 -8 8 -52 64 -98 124 -46
60 -91 116 -99 125 -9 10 -41 50 -71 90 -112 147 -182 235 -191 238 -5 2 -9
-941 -9 -2278z"/>
<path d="M10375 6203 c-195 -17 -382 -61 -505 -117 -54 -25 -158 -92 -211
-137 -45 -37 -158 -168 -186 -214 -111 -184 -171 -357 -209 -605 -26 -168 -26
-566 -1 -710 64 -361 165 -587 343 -763 36 -36 84 -78 107 -94 23 -15 44 -31
45 -35 2 -5 12 -8 22 -8 10 0 21 -4 25 -9 9 -16 115 -61 205 -88 174 -51 239
-56 870 -59 322 -2 597 -1 613 3 l27 5 0 243 0 243 -522 5 c-572 4 -606 7
-742 65 -84 36 -178 118 -225 196 -46 77 -96 229 -118 356 -22 133 -25 558 -5
660 29 142 46 198 86 274 81 155 238 257 443 286 38 5 295 10 571 10 439 1
501 3 506 16 3 9 6 116 6 238 0 159 -3 225 -12 234 -9 9 -144 12 -553 10 -297
-1 -558 -3 -580 -5z"/>
<path d="M12893 6202 c-12 -8 -58 -112 -178 -407 -43 -104 -99 -242 -125 -305
-26 -63 -100 -245 -165 -405 -64 -159 -123 -303 -130 -320 -8 -16 -36 -86 -64
-155 -49 -123 -163 -406 -180 -445 -36 -86 -59 -141 -117 -285 -37 -91 -75
-186 -85 -212 -10 -26 -42 -102 -70 -169 -28 -66 -48 -124 -44 -127 4 -4 157
-8 341 -9 l334 -1 18 41 c10 23 26 60 34 82 20 51 67 164 78 190 28 63 95 229
114 282 14 42 27 63 41 67 11 3 255 6 543 6 l522 0 26 -57 c14 -32 46 -110 70
-173 25 -63 50 -119 55 -124 5 -6 9 -18 9 -29 0 -10 9 -35 19 -55 11 -20 24
-48 29 -62 42 -106 56 -137 70 -152 14 -17 44 -18 349 -18 186 0 333 4 333 9
0 8 -38 104 -129 326 -21 50 -66 160 -100 245 -34 85 -69 169 -76 185 -8 17
-39 93 -70 170 -121 302 -198 492 -215 530 -10 22 -41 99 -70 170 -29 72 -58
144 -65 160 -7 17 -27 66 -45 110 -18 44 -36 89 -41 100 -17 40 -122 301 -139
345 -9 25 -24 63 -34 85 -10 22 -28 67 -41 100 -57 147 -116 279 -131 296 -16
18 -37 19 -338 19 -177 0 -326 -4 -333 -8z m380 -778 c20 -49 63 -152 93 -229
31 -77 60 -144 65 -149 5 -6 9 -17 9 -25 0 -13 87 -235 115 -293 7 -15 16 -41
20 -58 4 -16 11 -32 16 -35 5 -4 9 -14 9 -24 0 -10 7 -31 15 -47 8 -15 12 -30
10 -33 -8 -7 -789 -1 -796 7 -6 5 100 285 142 377 26 57 219 544 233 588 11
34 30 11 69 -79z"/>
<path  d="M15933 6202 c-12 -8 -93 -174 -93 -192 0 -6 -4 -18 -10 -28 -9 -15
-86 -204 -231 -562 -28 -69 -57 -138 -64 -155 -7 -16 -20 -50 -30 -75 -10 -25
-24 -58 -31 -75 -7 -16 -22 -55 -33 -85 -12 -30 -26 -64 -31 -75 -5 -11 -19
-45 -31 -75 -12 -30 -27 -68 -34 -85 -7 -16 -39 -93 -70 -170 -31 -77 -76
-187 -100 -245 -45 -111 -112 -275 -268 -660 -53 -129 -105 -257 -116 -283
-36 -84 -61 -77 312 -77 183 1 337 4 343 8 6 4 15 18 19 32 8 25 71 180 105
255 22 49 118 287 135 335 l13 35 539 3 540 2 21 -47 c12 -27 40 -95 63 -153
22 -58 49 -123 59 -145 35 -76 50 -113 50 -122 0 -4 6 -19 13 -33 7 -14 24
-54 37 -88 14 -35 33 -68 43 -74 26 -14 642 -7 657 8 12 12 -49 175 -160 429
-10 22 -21 51 -25 65 -4 14 -16 45 -27 70 -28 61 -29 62 -102 245 -35 88 -85
212 -111 275 -26 63 -55 135 -65 160 -30 78 -80 203 -107 265 -14 33 -29 69
-34 80 -18 43 -84 205 -126 310 -24 61 -48 119 -52 130 -5 11 -23 55 -40 98
-77 192 -94 234 -106 262 -8 17 -23 55 -35 85 -12 30 -33 78 -46 107 -13 28
-24 58 -24 65 0 7 -9 28 -20 46 -11 18 -20 41 -20 52 0 11 -4 20 -10 20 -5 0
-12 11 -16 25 -3 14 -14 30 -24 35 -22 12 -639 13 -657 2z m385 -795 c24 -62
49 -125 57 -142 7 -16 33 -82 58 -145 25 -63 78 -196 118 -295 82 -206 111
-286 104 -293 -6 -6 -786 -4 -792 2 -4 4 172 456 222 571 7 17 43 107 80 200
67 169 89 215 103 215 4 0 26 -51 50 -113z"/>
<path d="M17946 6172 c-15 -3 -16 -25 -14 -240 l3 -237 515 -6 c548 -6 578 -9
716 -60 163 -61 283 -199 332 -379 57 -210 57 -614 1 -868 -54 -243 -161 -386
-338 -453 -125 -47 -177 -51 -716 -58 l-510 -6 0 -235 0 -235 620 0 c633 1
691 3 845 42 36 8 98 31 138 49 41 19 76 34 79 34 3 0 25 14 50 30 24 17 47
30 52 30 18 0 198 190 238 252 109 169 186 394 213 628 16 138 14 523 -4 650
-52 369 -190 643 -414 824 -95 77 -279 162 -402 186 -199 40 -238 43 -610 46
-206 2 -465 5 -576 7 -110 1 -208 1 -218 -1z"/>
<path d="M1803 4683 c-54 -64 -123 -147 -153 -184 -30 -37 -99 -121 -152 -186
-53 -65 -107 -131 -120 -146 -13 -16 -72 -88 -132 -160 -59 -73 -124 -152
-145 -177 -20 -24 -58 -72 -86 -105 -27 -33 -68 -83 -90 -110 -48 -60 -50 -63
-156 -191 -46 -56 -120 -145 -164 -200 -44 -54 -98 -119 -120 -144 -23 -25
-53 -61 -68 -81 l-26 -37 42 -5 c23 -3 510 -3 1082 0 572 3 1401 5 1843 5 669
-1 802 1 802 13 0 7 -4 15 -10 17 -5 2 -47 33 -92 70 -109 88 -328 266 -508
412 -80 65 -253 205 -385 311 -435 351 -585 473 -620 504 -11 9 -78 64 -150
121 -141 113 -156 125 -352 283 -73 59 -135 107 -137 107 -3 0 -49 -52 -103
-117z"/>
<path d="M6558 4733 c-30 -27 -146 -122 -258 -213 -112 -91 -225 -183 -250
-206 -26 -22 -64 -54 -86 -70 -21 -16 -41 -31 -44 -34 -6 -7 -114 -95 -400
-328 -124 -101 -292 -239 -375 -307 -153 -127 -324 -267 -520 -427 -60 -49
-121 -100 -135 -112 -14 -12 -41 -33 -60 -46 -33 -23 -33 -25 -12 -30 13 -3
274 -2 580 1 306 3 1132 3 1835 1 702 -3 1277 -2 1277 2 0 7 -108 147 -121
156 -5 4 -238 287 -299 364 -13 16 -144 173 -247 297 -48 58 -136 166 -195
240 -60 74 -140 172 -179 219 -38 47 -121 148 -184 225 -62 77 -131 160 -154
185 -22 25 -41 49 -41 53 0 8 -66 77 -73 77 -2 0 -29 -21 -59 -47z"/>
<path d="M893 2933 c9 -2 23 -2 30 0 6 3 -1 5 -18 5 -16 0 -22 -2 -12 -5z"/>
<path d="M18878 2916 c-26 -6 -53 -17 -60 -23 -6 -7 -17 -13 -22 -13 -18 0
-71 -52 -98 -95 -30 -45 -58 -160 -58 -233 0 -76 35 -198 73 -251 20 -28 54
-57 87 -76 52 -28 61 -30 170 -30 98 0 123 3 170 24 107 45 163 126 181 261
20 148 -16 302 -85 369 -49 48 -150 81 -239 80 -40 -1 -93 -6 -119 -13z m229
-92 c68 -33 90 -71 105 -183 14 -110 -2 -248 -33 -293 -32 -44 -94 -70 -177
-76 -132 -9 -201 37 -233 155 -34 125 -18 278 36 349 39 51 94 74 181 74 55 0
81 -5 121 -26z"/>
<path d="M9677 2909 c-84 -20 -141 -71 -186 -169 -22 -47 -26 -72 -29 -170 -4
-128 8 -188 52 -258 33 -52 79 -86 136 -100 43 -11 336 -19 345 -10 2 2 6 20
7 39 l3 34 -150 5 c-82 3 -161 11 -175 17 -40 17 -74 63 -94 125 -30 98 -42
93 201 96 l211 2 5 33 c9 54 -3 57 -230 57 -156 0 -203 3 -203 13 1 50 31 132
60 162 42 43 95 55 250 55 l120 0 0 40 0 40 -142 -1 c-79 -1 -160 -5 -181 -10z"/>
<path d="M10157 2913 c-4 -3 -7 -165 -7 -360 l0 -353 50 0 50 0 2 298 c3 296
9 341 34 255 10 -31 156 -426 196 -526 10 -26 14 -28 66 -25 l55 3 29 80 c27
75 55 152 141 400 19 54 40 101 46 103 7 2 11 -84 13 -290 l3 -293 53 -3 52
-3 -2 358 -3 358 -77 3 -78 3 -15 -33 c-8 -18 -37 -96 -65 -173 -109 -302
-140 -377 -152 -373 -5 2 -34 66 -64 143 -30 77 -62 154 -70 172 -7 17 -14 37
-14 45 0 8 -4 18 -9 24 -5 5 -18 36 -30 69 -12 33 -29 75 -39 93 -16 32 -18
32 -88 32 -39 0 -74 -3 -77 -7z"/>
<path d="M11117 2913 c-4 -3 -7 -166 -7 -360 l0 -354 53 3 52 3 3 130 3 131
137 1 c168 1 215 12 263 63 36 38 46 64 56 152 11 100 -55 203 -146 228 -40
11 -404 14 -414 3z m358 -83 c65 -15 85 -47 85 -135 0 -68 -2 -77 -29 -107
l-29 -33 -144 -3 -143 -3 2 133 c1 73 3 139 3 146 0 15 192 17 255 2z"/>
<path d="M11808 2914 c-5 -4 -8 -167 -8 -361 l0 -354 53 3 52 3 0 150 0 150
78 3 c198 7 274 -43 291 -193 13 -118 11 -115 67 -115 l49 0 -6 88 c-9 119
-25 159 -82 209 l-47 42 36 15 c62 26 109 100 109 172 0 33 -21 86 -48 123
-43 58 -72 64 -317 69 -121 2 -223 1 -227 -4z m435 -97 c54 -35 60 -141 12
-190 -31 -31 -68 -37 -222 -37 -110 0 -123 2 -123 18 0 9 -2 60 -4 112 -1 52
-1 101 2 109 8 21 300 11 335 -12z"/>
<path d="M12733 2910 c-131 -26 -217 -146 -229 -318 -11 -148 22 -259 95 -325
65 -58 144 -73 379 -68 l73 1 -3 38 -3 37 -151 5 c-140 5 -153 7 -187 30 -44
30 -78 95 -85 161 l-5 49 214 2 214 3 3 34 c2 20 -2 37 -10 43 -7 4 -103 8
-213 7 l-200 0 1 50 c2 57 29 116 65 144 38 27 91 36 220 37 128 0 145 7 133
54 l-6 26 -132 -1 c-72 -1 -150 -5 -173 -9z"/>
<path d="M13390 2910 c-89 -19 -132 -52 -182 -138 -92 -161 -69 -403 49 -514
47 -44 117 -58 290 -58 l153 0 0 40 0 40 -134 0 c-73 0 -148 5 -167 11 -69 24
-114 89 -120 174 l-4 50 213 3 212 2 0 39 c0 26 -5 41 -16 45 -9 3 -105 6
-215 6 l-200 0 7 53 c9 72 41 126 89 151 34 18 62 22 188 24 l147 4 0 39 0 39
-137 -1 c-76 -1 -154 -5 -173 -9z"/>
<path d="M13857 2913 c-4 -3 -7 -166 -7 -360 l0 -354 48 3 47 3 1 225 c1 306
3 340 13 340 4 0 37 -45 72 -101 35 -55 117 -184 183 -285 l118 -184 62 0 61
0 -2 352 c-2 194 -3 356 -3 361 0 4 -20 7 -44 7 -41 0 -45 -2 -50 -27 -2 -16
-4 -144 -3 -286 1 -167 -1 -256 -8 -254 -11 3 -92 125 -195 293 -36 58 -71
112 -77 119 -7 8 -13 16 -13 19 0 10 -66 112 -80 123 -16 13 -112 18 -123 6z"/>
<path d="M14636 2911 c-4 -5 -5 -167 -4 -360 l2 -351 197 0 c125 0 208 4 226
11 74 31 90 40 114 66 36 37 53 75 73 154 39 160 4 334 -85 414 -45 40 -73 53
-138 65 -67 13 -378 13 -385 1z m365 -81 c94 -17 134 -84 146 -245 10 -127
-24 -230 -91 -273 -39 -26 -46 -27 -181 -27 l-140 0 -3 265 c-1 146 0 270 3
277 6 16 186 18 266 3z"/>
<path d="M15397 2898 c-4 -12 -5 -173 -4 -358 l2 -335 53 -3 52 -3 -2 358 -3
358 -46 3 c-41 3 -47 0 -52 -20z"/>
<path d="M15676 2908 c-9 -28 -14 -662 -6 -684 8 -20 16 -24 55 -24 l45 0 2
298 c2 163 7 297 12 297 4 0 23 -43 40 -95 56 -164 180 -485 191 -492 17 -13
105 -9 110 5 2 6 37 107 79 222 41 116 86 243 99 283 14 40 28 73 33 72 5 0
11 -132 14 -292 l5 -293 46 -3 c45 -3 47 -2 53 29 8 41 8 617 0 658 l-7 32
-74 -3 -75 -3 -35 -90 c-19 -49 -44 -115 -56 -145 -11 -30 -32 -86 -47 -125
-15 -38 -40 -103 -55 -142 -27 -74 -48 -92 -58 -50 -2 12 -52 141 -110 287
l-105 265 -76 3 c-56 2 -77 -1 -80 -10z"/>
<path d="M16823 2910 c-80 -16 -138 -63 -187 -151 -51 -93 -60 -299 -17 -386
12 -23 21 -46 21 -50 1 -17 68 -79 106 -97 58 -27 307 -47 372 -30 19 6 23 12
20 43 l-3 36 -150 6 c-90 3 -160 10 -175 18 -52 26 -98 112 -103 190 l-2 26
215 5 215 5 3 36 c3 35 1 37 -32 43 -20 4 -114 6 -210 6 -96 -1 -179 1 -184 4
-12 7 2 86 24 132 9 19 33 47 52 62 34 26 40 27 189 31 152 3 153 3 159 27 13
51 5 54 -138 53 -73 -1 -152 -5 -175 -9z"/>
<path d="M17280 2561 c0 -235 4 -361 10 -363 6 -2 31 -2 55 0 l45 4 0 285 c0
206 3 284 11 281 6 -2 22 -22 34 -43 12 -22 76 -123 140 -225 65 -102 134
-211 154 -242 l36 -58 61 0 62 0 7 36 c7 39 5 621 -3 660 -4 21 -10 24 -47 24
-28 0 -45 -5 -48 -14 -3 -8 -4 -74 -2 -148 4 -151 -5 -408 -15 -408 -3 0 -32
42 -64 93 -33 50 -71 110 -85 132 -14 22 -28 45 -31 51 -8 17 -131 210 -163
255 -27 39 -28 39 -92 39 l-65 0 0 -359z"/>
<path d="M17997 2907 c-3 -7 -3 -25 0 -40 l5 -27 119 0 119 0 1 -47 c0 -27 2
-169 2 -318 l2 -270 53 -3 52 -3 0 320 0 321 119 0 c110 0 120 2 126 20 3 10
1 28 -5 40 -10 19 -19 20 -299 20 -229 0 -290 -3 -294 -13z"/>
<path d="M19587 2906 c-87 -24 -141 -81 -153 -164 -8 -52 7 -121 34 -157 34
-46 76 -57 240 -64 147 -7 154 -8 178 -33 34 -34 43 -102 19 -147 -27 -54 -60
-61 -270 -61 l-186 0 3 -37 3 -38 194 -3 c208 -3 260 5 316 50 47 37 69 119
54 198 -14 70 -32 99 -77 129 -32 21 -53 25 -177 31 -77 5 -154 13 -171 20
-47 17 -69 75 -53 135 18 63 39 69 254 75 l190 5 3 38 3 37 -178 -1 c-112 0
-196 -5 -226 -13z"/>
<path fill = "#000" d="M390 2873 c1 -13 363 -243 845 -537 88 -54 194 -119 235 -146 160
-103 426 -268 443 -273 11 -4 17 -1 17 8 0 10 10 15 28 14 23 0 24 -2 8 -8
-31 -12 -3 -22 33 -11 41 12 39 5 -5 -18 l-36 -19 113 -68 c63 -37 157 -96
209 -130 52 -34 124 -80 160 -102 36 -22 157 -97 269 -168 112 -70 254 -158
315 -195 61 -36 149 -90 196 -120 47 -29 135 -83 195 -120 61 -36 193 -120
295 -185 304 -194 511 -316 523 -308 7 4 20 6 29 5 9 -2 30 4 46 12 26 14 31
14 36 1 8 -21 16 -19 67 14 24 15 91 59 149 96 337 219 447 289 600 390 238
156 386 252 518 336 187 119 445 286 457 296 20 16 151 101 185 120 19 10 54
31 78 46 23 15 61 37 83 49 23 11 43 27 46 34 3 8 11 14 18 14 20 0 24 23 6
38 -14 11 -13 12 9 6 14 -4 30 -8 35 -10 8 -3 58 23 134 71 77 49 121 77 215
139 135 87 241 153 326 201 36 21 67 40 70 44 7 9 68 51 74 51 10 0 111 64
114 72 2 4 9 8 16 8 6 0 21 7 31 16 11 8 91 59 179 112 87 53 168 104 181 112
13 8 55 34 94 58 39 24 71 47 71 52 0 6 -685 10 -1862 10 -2058 0 -1904 6
-1737 -64 153 -63 161 -67 156 -72 -3 -3 -62 18 -131 45 -131 53 -152 59 -141
40 4 -6 9 -8 12 -6 2 3 30 -7 61 -23 31 -15 92 -42 135 -60 43 -18 76 -34 74
-36 -7 -7 -280 106 -299 123 -15 13 -17 11 -26 -29 -5 -23 -10 -33 -11 -22 -1
12 -8 25 -17 28 -8 3 -12 2 -9 -4 3 -6 2 -10 -4 -10 -5 0 -14 8 -20 17 -10 19
-9 21 -24 -52 -3 -11 -5 -1 -6 22 -1 51 -10 57 -53 39 -96 -41 -119 -49 -125
-42 -4 4 3 9 15 13 12 3 19 10 15 16 -3 5 -2 7 4 4 5 -3 31 2 58 12 35 13 43
20 30 24 -23 9 -27 9 -20 -3 6 -9 -10 -14 -42 -13 -7 1 -10 -4 -6 -10 4 -6 0
-8 -11 -4 -9 4 -24 2 -34 -3 -31 -18 -125 -51 -130 -46 -2 3 8 10 24 17 46 18
66 27 114 47 25 10 53 22 63 25 9 4 17 11 17 17 0 7 -598 10 -1890 10 -1039 0
-1890 -3 -1890 -7z m3645 -123 c-3 -5 -14 -10 -23 -10 -15 0 -15 2 -2 10 20
13 33 13 25 0z m-1928 -756 c-3 -3 -12 -4 -19 -1 -8 3 -5 6 6 6 11 1 17 -2 13
-5z m-57 -28 c0 -2 -11 -6 -25 -8 -13 -3 -22 -1 -19 3 5 9 44 13 44 5z m4450
-26 c22 -11 40 -22 40 -25 0 -4 -91 34 -99 41 -13 12 26 1 59 -16z m-4425 0
c-27 -12 -43 -12 -25 0 8 5 22 9 30 9 10 0 8 -3 -5 -9z"/>
<path d="M17259 1865 c-21 -11 -49 -58 -49 -81 0 -11 49 -2 60 11 16 19 63 19
100 0 16 -9 49 -18 73 -21 42 -6 46 -4 71 28 14 19 26 42 26 52 0 26 -28 31
-48 7 -23 -28 -56 -29 -120 -2 -61 24 -77 25 -113 6z"/>
<path d="M12295 1703 c-191 -28 -276 -103 -311 -274 -22 -110 -14 -192 30
-314 18 -50 85 -108 152 -133 85 -31 205 -31 293 0 148 52 211 178 198 398
-11 199 -96 296 -282 318 -33 4 -69 6 -80 5z m140 -104 c87 -41 110 -100 110
-279 0 -130 -1 -137 -28 -182 -39 -65 -80 -88 -169 -95 -182 -13 -259 70 -260
285 -1 149 36 237 116 272 60 27 173 26 231 -1z"/>
<path d="M17302 1699 c-61 -12 -142 -51 -178 -86 -58 -56 -85 -131 -91 -252
-8 -156 17 -247 89 -320 59 -61 107 -76 243 -76 111 0 124 2 173 27 71 37 129
100 148 163 9 27 18 94 21 148 9 158 -21 253 -101 324 -67 59 -205 92 -304 72z
m188 -107 c81 -40 103 -88 108 -242 5 -130 -12 -212 -51 -247 -53 -50 -89 -63
-167 -62 -185 1 -248 88 -238 330 4 92 8 112 31 152 55 94 202 126 317 69z"/>
<path d="M10650 1680 c-61 -13 -88 -28 -133 -75 -70 -72 -92 -141 -92 -295 0
-122 1 -127 33 -193 58 -116 117 -145 323 -154 161 -7 189 -2 189 31 0 55 -3
56 -139 56 -151 0 -195 11 -237 57 -33 35 -70 142 -60 169 4 11 43 14 215 14
l210 0 7 35 c3 20 3 39 -1 43 -3 4 -103 9 -221 10 -243 4 -224 -5 -196 96 13
45 26 66 54 89 45 36 94 46 245 46 112 1 113 1 119 26 13 53 6 55 -143 54 -76
-1 -154 -5 -173 -9z"/>
<path d="M11570 1681 c-79 -16 -151 -79 -189 -166 -31 -69 -46 -200 -31 -271
36 -175 113 -252 272 -274 72 -11 261 -11 277 0 14 9 19 49 7 64 -9 11 -43 15
-162 18 -141 3 -153 5 -188 28 -60 41 -90 115 -94 232 -3 79 0 109 17 161 37
111 71 129 251 134 180 5 182 6 178 46 l-3 32 -150 1 c-82 1 -166 -1 -185 -5z"/>
<path d="M12799 1453 c-3 -438 -2 -475 13 -484 20 -13 64 -11 76 4 7 8 11 83
11 202 0 105 1 230 1 278 0 52 4 87 9 85 9 -3 166 -240 184 -278 10 -21 23
-41 91 -145 32 -49 63 -100 69 -112 5 -12 22 -27 37 -33 32 -13 108 -10 112 4
2 6 2 170 0 364 l-3 352 -38 0 c-20 0 -42 -5 -49 -12 -9 -9 -12 -86 -12 -285
0 -157 -4 -273 -9 -273 -5 0 -53 71 -106 158 -143 231 -165 266 -216 340 l-45
67 -62 3 -62 3 -1 -238z"/>
<path d="M13704 1681 c-170 -28 -219 -285 -70 -360 41 -21 68 -25 198 -31 130
-6 152 -10 170 -27 22 -23 34 -86 24 -137 -12 -62 -40 -70 -266 -76 l-195 -5
-3 -28 c-7 -58 3 -61 213 -54 200 6 238 13 291 49 44 30 64 68 71 133 11 108
-42 207 -122 225 -22 5 -84 10 -138 10 -131 0 -184 14 -208 54 -23 37 -24 77
-4 116 26 50 45 54 250 60 l190 5 0 35 0 35 -180 1 c-99 1 -199 -1 -221 -5z"/>
<path d="M14204 1676 c-3 -8 -4 -25 -2 -38 3 -22 7 -23 120 -28 64 -3 119 -8
123 -12 4 -3 7 -144 6 -312 0 -174 4 -308 9 -311 14 -9 79 -9 88 -1 4 4 8 141
8 304 1 164 2 305 3 315 1 15 14 17 121 17 119 0 120 0 126 25 14 56 20 55
-301 55 -247 0 -297 -2 -301 -14z"/>
<path d="M14910 1330 l0 -360 25 -6 c14 -3 36 -3 50 0 l24 6 3 153 3 152 110
-1 c191 -1 230 -34 255 -212 14 -91 27 -108 77 -96 16 4 31 8 34 10 10 6 -20
203 -36 233 -8 17 -33 45 -55 62 -43 35 -50 49 -22 49 61 0 122 85 122 170 0
62 -17 106 -58 147 -43 42 -112 53 -345 53 l-187 0 0 -360z m436 262 c27 -14
44 -61 44 -118 0 -34 -6 -50 -29 -73 -35 -35 -86 -44 -241 -39 l-105 3 -3 109
c-1 61 0 116 3 124 4 12 33 13 158 10 92 -2 160 -8 173 -16z"/>
<path d="M15637 1676 c-3 -7 -6 -128 -6 -267 -1 -252 -1 -255 24 -308 26 -56
57 -89 110 -119 24 -13 56 -17 155 -17 119 0 128 1 184 30 38 20 69 45 90 73
l31 44 0 286 0 287 -42 3 c-37 3 -43 0 -47 -20 -3 -13 -7 -138 -8 -278 -3
-282 -3 -282 -70 -323 -23 -14 -56 -22 -110 -25 -64 -4 -84 -1 -121 17 -81 39
-81 39 -88 351 -3 151 -6 276 -7 278 -1 1 -22 2 -46 2 -28 0 -46 -5 -49 -14z"/>
<path d="M16585 1681 c-70 -12 -137 -68 -174 -144 -72 -149 -65 -331 18 -449
45 -64 83 -87 190 -114 l85 -22 0 -38 c1 -34 4 -38 34 -46 27 -7 32 -13 32
-37 0 -26 -4 -29 -41 -34 -46 -6 -69 -28 -41 -38 26 -9 95 2 113 18 18 15 29
65 21 95 -2 9 -19 22 -38 28 -29 10 -54 35 -54 54 0 3 38 6 84 6 109 0 116 3
116 50 l0 38 -157 4 c-177 3 -207 13 -250 77 -86 128 -56 403 49 457 22 11 76
18 192 22 l161 7 0 35 0 35 -150 1 c-82 1 -168 -1 -190 -5z"/>
<path d="M18041 1683 c-38 -5 -102 -42 -138 -81 -13 -14 -38 -55 -56 -91 -31
-64 -32 -70 -32 -196 0 -118 2 -135 24 -180 37 -74 85 -121 149 -146 48 -18
82 -23 209 -26 l153 -3 6 24 c15 59 12 61 -151 66 -128 4 -155 8 -185 26 -40
23 -85 104 -95 172 l-7 42 215 0 214 0 6 37 c4 20 4 39 1 42 -3 4 -94 7 -202
8 -108 2 -205 4 -214 7 -33 8 3 134 52 181 36 35 85 44 241 44 l117 1 4 35 c2
20 2 38 -1 40 -5 6 -261 4 -310 -2z"/>
<path d="M18635 1681 c-100 -17 -167 -97 -167 -201 0 -82 25 -128 87 -160 43
-22 66 -25 194 -31 80 -3 153 -9 162 -13 20 -9 49 -69 49 -102 0 -38 -26 -91
-52 -106 -16 -9 -82 -15 -217 -18 l-195 -5 -8 -30 c-14 -54 3 -58 208 -52 209
7 261 17 307 61 44 42 57 75 57 151 0 63 -12 107 -37 133 -7 7 -13 16 -13 20
0 4 -15 16 -33 26 -25 15 -62 21 -172 27 -77 4 -153 11 -170 16 -76 23 -81
164 -7 195 15 6 110 14 212 17 l185 6 0 35 0 35 -175 1 c-96 1 -193 -1 -215
-5z"/>
</g>
</svg>
